<svg width="32" height="32" viewBox="0 0 32 32" fill="none" xmlns="http://www.w3.org/2000/svg">
  <defs>
    <linearGradient id="rocketGradient" x1="0%" y1="0%" x2="100%" y2="100%">
      <stop offset="0%" stop-color="#6366f1"/>
      <stop offset="100%" stop-color="#8b5cf6"/>
    </linearGradient>
  </defs>
  <rect width="32" height="32" rx="8" fill="url(#rocketGradient)"/>
  <path d="M16 6C16 6 10 12 10 18C10 20 11 22 13 23L14 20H18L19 23C21 22 22 20 22 18C22 12 16 6 16 6Z" fill="white"/>
  <circle cx="16" cy="15" r="2" fill="#6366f1"/>
  <path d="M13 23L11 26H14L13 23Z" fill="white" opacity="0.8"/>
  <path d="M19 23L21 26H18L19 23Z" fill="white" opacity="0.8"/>
  <path d="M15 23L16 27L17 23H15Z" fill="white"/>
</svg>
