<svg width="180" height="180" viewBox="0 0 180 180" fill="none" xmlns="http://www.w3.org/2000/svg">
  <style>
    @media (prefers-color-scheme: light) {
      .background { fill: #6366f1; }
      .foreground { fill: white; }
      .accent { fill: #6366f1; }
    }
    @media (prefers-color-scheme: dark) {
      .background { fill: #6366f1; }
      .foreground { fill: white; }
      .accent { fill: #6366f1; }
    }
  </style>
  <rect class="background" width="180" height="180" rx="37"/>
  <g transform="translate(90, 90)">
    <!-- Rocket body -->
    <path class="foreground" d="M0 -55C0 -55 -35 -10 -35 30C-35 42 -28 52 -18 58L-12 40H12L18 58C28 52 35 42 35 30C35 -10 0 -55 0 -55Z"/>
    <!-- Window -->
    <circle class="accent" cx="0" cy="-8" r="12"/>
    <!-- Left flame -->
    <path class="foreground" d="M-18 58L-30 80H-8L-18 58Z" opacity="0.8"/>
    <!-- Right flame -->
    <path class="foreground" d="M18 58L30 80H8L18 58Z" opacity="0.8"/>
    <!-- Center flame -->
    <path class="foreground" d="M-8 58L0 88L8 58H-8Z"/>
  </g>
</svg>
